# xmcd
#
# Track frame offsets: 
#        150
#        13037
#        30599
#        47701
#        68175
#        91634
#        110894
#        127441
#        145799
#        170748
#        194574
#        210105
#        230500
#        252203
#        276843
#        296498
#        312513
#
# Disc length: 4371 seconds
#
# Revision: 0
# Processed by: cddbd v1.4PL0 Copyright (c) Steve Scherf et al.
# Submitted via: ExactAudioCopy v0.95a3
#
DISCID=01111111
DTITLE=Jim Suhler and Monkey Beat - Starvation Box
DYEAR=2003
DGENRE=Blues
TTITLE0=Where Were You When The Lights Went Out?
TTITLE1=Deja Blue
TTITLE2=Ain't Comin' Home Tonight
TTITLE3=Snake Hips
TTITLE4=Prayin' For Rain
TTITLE5=Little Boy Blue
TTITLE6=Blame It On Love
TTITLE7=Snake Bit
TTITLE8=U Gotta Move
TTITLE9=Starvation Box
TTITLE10=Chupacabra
TTITLE11=Shotgun Shack
TTITLE12=Love Ain't Enough
TTITLE13=Don't Stand Still
TTITLE14=Shake
TTITLE15=Radio Mojo
TTITLE16=Lonesome Dog Blues
EXTD=
EXTT0=
EXTT1=
EXTT2=
EXTT3=
EXTT4=
EXTT5=
EXTT6=
EXTT7=
EXTT8=
EXTT9=
EXTT10=
EXTT11=
EXTT12=
EXTT13=
EXTT14=
EXTT15=
EXTT16=
PLAYORDER=
